# xmcd
#
# Track frame offsets:
#	150
#	17977
#	34145
#	47302
#	60667
#	75967
#	89450
#	101342
#	114582
#	130957
#	145700
#
# Disc length: 2061 seconds
#
# Revision: 1
# Processed by: cddbd v1.4PL0 Copyright (c) Steve Scherf et al.
# Submitted via: audiograbber 1.80
#
DISCID=83080b0b
DTITLE=Roy Cury - Flat Top Specialist
DYEAR=1900
DGENRE=
TTITLE0=Bill Cheatum
TTITLE1=Nashville Blues
TTITLE2=Old Hogan's Goat
TTITLE3=Red Haired Boy
TTITLE4=Over The Waterfall
TTITLE5=Fireball Mail
TTITLE6=Old Dominion
TTITLE7=Alabama Jubilee
TTITLE8=Dixie Hoedown
TTITLE9=Soldiers Joy
TTITLE10=Unknown
EXTD=
EXTT0=
EXTT1=
EXTT2=
EXTT3=
EXTT4=
EXTT5=
EXTT6=
EXTT7=
EXTT8=
EXTT9=
EXTT10=
PLAYORDER=
